<svg xmlns="http://www.w3.org/2000/svg" viewBox="0 0 29 44" fill="#EF423C">
  <path d="M24.55,23.15c0-5-2.12-6.51-9.47-6.51H5.61v19h7.1v-5.9c1.85.14,2.47.91,2.77,1.5a8.76,8.76,0,0,1,.49,3.7v.7h8.58V35c0-3-1.29-4.91-3.92-5.85C23.56,28.36,24.55,26.59,24.55,23.15ZM12.71,28.47V17.88a5.26,5.26,0,0,1,4.74,5.27C17.45,27.08,16.36,28.35,12.71,28.47ZM11.53,17.83V28.48H6.79V17.83ZM6.79,34.4V29.67h4.74V34.4Zm16.56,0h-6.2a8.5,8.5,0,0,0-.61-3.74,3.77,3.77,0,0,0-.74-1H16C22,29.66,23.2,32.08,23.35,34.4Zm-6.43-6c1.21-1,1.71-2.69,1.71-5.29a6.05,6.05,0,0,0-2.84-5.31c6.49.09,7.58,1.4,7.58,5.31C23.37,26.83,22.41,28.21,16.92,28.44Z"/>
  <path d="M4,37.91l-2.7,5.63H27.61L25,37.91Zm-.82,4.44L4.7,39.1H24.28l1.48,3.25Z"/>
  <path d="M3.27,8.24,5.4,14.4H23.48l2.14-6.16Zm19.37,5H6.24L4.94,9.43H24Z"/>
  <path d="M2.85,6.16H26l.54-.35,2.32-5L28.35,0H24.87l-.49.26L23.13,2.13,21.89.26,21.39,0H7.49L7,.26,5.75,2.13,4.51.26,4,0H.54L0,.84l2.31,5Zm.85-5L5.26,3.53h1L7.81,1.19H21.08l1.56,2.34h1l1.56-2.34h2.23L25.66,5H3.23L1.47,1.19Z"/>
</svg>
